<svg id="Layer_1" data-name="Layer 1" xmlns="http://www.w3.org/2000/svg" viewBox="0 0 152.17 79.21"><defs><style>.cls-1{fill:#fefdf2;}.cls-2{fill:#fdfcf2;}.cls-3{fill:#f8f8ec;}.cls-4{fill:#f6f7e9;}.cls-5{fill:#f6f7e8;}.cls-6{fill:#f7f8e9;}.cls-7{fill:#f6f7ea;}.cls-8{fill:#f7f8eb;}.cls-9{fill:#f3f3e7;}</style></defs><path class="cls-1" d="M453.31,317.57a2.5,2.5,0,0,0-.24-.22,8.39,8.39,0,0,1-3.15-7.12c.05-3.79,0-7.57,0-11.36.05-4.86-.23-9.73.34-14.58a87.79,87.79,0,0,1,1.5-9.11c.11-.52.35-1.09-.1-1.53s-1.13-.17-1.67,0a10,10,0,0,0-2.82,1.57c-3.62,2.71-7.53,4.66-12.15,4.83-.48,0-1,0-1.21.61s.19,1,.61,1.37a8.11,8.11,0,0,1,2,3.11c.46,1.12.26,1.64-1.08,1.34a19.8,19.8,0,0,0-8.36.12c-8.23,1.71-14.29,9.48-13.61,17.51.65,7.73,6.67,14,14.86,15.32,4.34.71,8.74.11,12.28.3,4.56,0,8.29,0,12,0,.56,0,1.27.19,1.56-.53S453.76,318,453.31,317.57ZM436.67,302c0,4.65-.41,8.4-1.95,11.94a7.05,7.05,0,0,1-.36.73c-.67,1.11-1.31,2.36-2.83,2.37s-2.23-1.17-2.87-2.33a21.22,21.22,0,0,1-2.27-8.72,31.44,31.44,0,0,1,1.41-13.13,12.8,12.8,0,0,1,1.12-2.33c1.49-2.43,3.7-2.41,5.19.06a19.78,19.78,0,0,1,2.22,7.08A25.12,25.12,0,0,1,436.67,302Z" transform="translate(-325.95 -240.59)"/><path class="cls-1" d="M351.46,301.39c1.57-7.15,3.12-13.89,2.77-20.89a8.59,8.59,0,0,0-1-3.57c-.71-1.37-.43-2,1-2,3.24-.07,6.49,0,9.74,0,.43,0,.92,0,1.1.5a1,1,0,0,1-.61,1.21c-3.6,2-4.67,5.64-5.77,9.22-2,6.4-3.9,12.82-5.89,19.22-.94,3-1.72,3.57-4.91,3.58-1.56,0-3.13,0-4.7,0-2.52-.1-3.57-.92-4.37-3.34-2.08-6.25-3.69-12.66-6-18.83-1.37-3.6-2.79-7.18-6.21-9.44a1.22,1.22,0,0,1-.67-1.36c.19-.66.79-.7,1.33-.7,6.38,0,12.76,0,19.14,0,1.33,0,1.89.81,1.24,1.74-2.19,3.15-1.83,6.6-1.25,10a57.08,57.08,0,0,0,4.43,13.87A8,8,0,0,0,351.46,301.39Z" transform="translate(-325.95 -240.59)"/><path class="cls-1" d="M402.28,282.74c1.18-1.37,2-2.46,3-3.46,2.08-2.18,4.33-4.1,7.54-4.34a9.78,9.78,0,0,1,5.87,1.53,6.15,6.15,0,0,1,1.07,10.06,8.67,8.67,0,0,1-7.45,2.37c-2.31-.33-3.25-1.67-3-4,.06-.64.23-1.27.33-1.91.22-1.48-.44-2-1.86-1.58-2.57.81-6,5.34-6.07,8.05-.09,4.71-.25,9.42,1.42,13.95a6.4,6.4,0,0,0,1.61,2.6c.52.49,1.08,1,.71,1.81s-1.14.74-1.84.74q-7.14,0-14.28,0l-2.6,0a1.21,1.21,0,0,1-1.2-.67,1,1,0,0,1,.48-1.26c3.36-2.35,3.84-5.77,3.68-9.49-.1-2.17,0-4.33,0-6.5a8.17,8.17,0,0,0-3.06-6.68c-.52-.43-1.3-.81-1.08-1.66s1.12-.79,1.77-.81c4.26-.12,7.77-2,11.1-4.46a29.36,29.36,0,0,1,3.06-1.82,1.45,1.45,0,0,1,1.54-.15c.51.37.23,1,.15,1.51C402.83,278.5,402.59,280.41,402.28,282.74Z" transform="translate(-325.95 -240.59)"/><path class="cls-1" d="M384.09,302.36c-.53-.39-.91,0-1.26.36a7.35,7.35,0,0,1-2.4,1.61c-3.88,1.73-7.84.22-9.14-3.68.85.18,1.52.35,2.2.45a9.53,9.53,0,0,0,8.29-2.27,5.93,5.93,0,0,0-.27-9.43c-5-4.13-12.92-3.42-17.46,1.55A10.78,10.78,0,0,0,362.48,303a12.65,12.65,0,0,0,13.83,6.12,12,12,0,0,0,7.81-5.34C384.41,303.34,384.67,302.8,384.09,302.36ZM371.92,289.8c1.31-1.81,2.81-1.68,3.8.35a7.52,7.52,0,0,1,.84,3.48,8.91,8.91,0,0,1-.92,4.48c-1,1.81-2.62,1.84-3.8.13A8.53,8.53,0,0,1,371.92,289.8Z" transform="translate(-325.95 -240.59)"/><path class="cls-1" d="M477.85,302.07c-.54-.53-1-.12-1.38.28-.19.18-.38.37-.59.54-4,3.16-9.36,2-10.94-2.7,2.93.9,5.63,1,8.25-.24s4.34-3.15,4.46-6.07S476,289.3,473.74,288a12.77,12.77,0,0,0-8.62-1.42c-6.11.89-10.69,6.43-10.12,12.07.75,7.44,8.69,12.12,16.11,9.84a11.83,11.83,0,0,0,6.62-4.95C478,303,478.37,302.56,477.85,302.07Zm-12-13c1.07-1.38,2.27-1.31,3.29.11,1.5,2.09,1.44,7-.11,9a1.86,1.86,0,0,1-3.15.16,6.32,6.32,0,0,1-1.4-4.69A7.14,7.14,0,0,1,465.85,289.08Z" transform="translate(-325.95 -240.59)"/><path class="cls-1" d="M386,276.82a30.53,30.53,0,0,1-6.25-.93c-.65-.18-1.14-.45-.88-1.23,1.86-5.64,4.6-10.56,10.85-12.28a19.53,19.53,0,0,1,10.71.5c.69.2,1.05.54.78,1.28-1.77,4.95-4.2,9.39-9.36,11.6A15.86,15.86,0,0,1,386,276.82Z" transform="translate(-325.95 -240.59)"/><path class="cls-2" d="M462.22,318.22c-4.72.22-7.46-3.51-8.7-6.47-.28-.64-.1-1,.56-1.21,6.1-2.19,10.54-.13,13.1,5.56.35.79,0,1.09-.64,1.32A11.42,11.42,0,0,1,462.22,318.22Z" transform="translate(-325.95 -240.59)"/><path class="cls-3" d="M362.27,247.13c-.5-.42-.63-.72-.08-1.24a2.85,2.85,0,0,0,.57-3.3,2.9,2.9,0,0,0-2.84-1.78c-1.34-.08-2.7,0-4-.06-1.14-.06-1.54.46-1.51,1.54,0,1.45,0,2.91,0,4.36h0v4.85c0,.76.28,1.26,1.12,1.25,1.62,0,3.24,0,4.84-.09a3.17,3.17,0,0,0,1.9-5.53Zm-6.35-4.87c.07-.35.51-.36.82-.35a30.88,30.88,0,0,1,3.2.19,1.7,1.7,0,0,1,1.66,1.82,1.83,1.83,0,0,1-1.57,1.94,13,13,0,0,1-2,.21c-.73-.2-1.77.39-2.07-.48A6.37,6.37,0,0,1,355.92,242.26Zm6,7.41a1.69,1.69,0,0,1-1.34,1.63,21.84,21.84,0,0,1-2.32.28c-.83-.24-2,.38-2.27-.49a10.68,10.68,0,0,1-.09-3.35.58.58,0,0,1,.41-.41c1.55-.07,3.13-.33,4.62.31A1.82,1.82,0,0,1,361.89,249.67Z" transform="translate(-325.95 -240.59)"/><path class="cls-4" d="M388.2,243.91c0,2.43,0,4.85,0,7.28,0,.56.12,1.4-.69,1.41s-.68-.84-.69-1.38c0-3-.05-5.95,0-8.92,0-.56-.14-1.3.64-1.49s.93.44,1.24.86q2.58,3.44,5.14,6.88a2.28,2.28,0,0,0,1.27,1.12c0-2.27-.05-4.45,0-6.62,0-.75-.52-2.14.68-2.11s.61,1.39.63,2.16c.06,2.54,0,5.08,0,7.62,0,.67.32,1.58-.48,1.91s-1.13-.63-1.52-1.15c-2-2.55-3.89-5.14-5.83-7.71Z" transform="translate(-325.95 -240.59)"/><path class="cls-5" d="M410.86,241a23.66,23.66,0,0,0-4.68-.23c-.94,0-1.2.56-1.2,1.36,0,1.51,0,3,0,4.54h0v4.7c0,.82.27,1.39,1.18,1.4a17.08,17.08,0,0,0,4.84-.26c2.66-.71,4-2.73,3.94-5.93S413.6,241.64,410.86,241Zm-2,10.5c-2.42.05-2.42.05-2.42-2.43v-4.69c0-2.46,0-2.46,2.53-2.36,3.21.13,4.57,1.56,4.54,4.79S412,251.42,408.86,251.48Z" transform="translate(-325.95 -240.59)"/><path class="cls-6" d="M458.67,244.12a4.6,4.6,0,0,0-2.71-3c-4.25-1.64-7.72.89-7.71,5.67,0,.33,0,.65,0,1a5.31,5.31,0,0,0,4.61,5.07c3.07.27,5.21-1.17,5.95-4A8,8,0,0,0,458.67,244.12Zm-5.76,7.41a2.7,2.7,0,0,1-.63-.12c-2-.64-2.95-2.9-2.56-5.88a3.89,3.89,0,0,1,3.65-3.69c2.61-.19,4.16,1.64,4.16,4.94S455.86,251.9,452.91,251.53Z" transform="translate(-325.95 -240.59)"/><path class="cls-7" d="M375.46,240.76c.82,0,1.63,0,2.44,0,.45,0,1.14-.13,1.11.58s-.73.5-1.17.52c-1.19,0-2.38.07-3.57,0-.95,0-1.43.31-1.33,1.32a6.28,6.28,0,0,1,0,1.3c-.1,1.09.29,1.59,1.47,1.5s2.27,0,3.4,0c.39,0,.83.07.88.53.06.61-.46.65-.89.66-1.19,0-2.38.09-3.57,0-1,0-1.31.38-1.29,1.33.06,3.39-.28,2.85,2.81,2.92.81,0,1.62,0,2.44,0,.37,0,.81,0,.86.54s-.34.64-.74.65c-1.95,0-3.9,0-5.84,0-.74,0-1-.56-1-1.24,0-3.13,0-6.27,0-9.41,0-.95.42-1.37,1.38-1.33s1.73,0,2.59,0Z" transform="translate(-325.95 -240.59)"/><path class="cls-8" d="M435.93,247.24c0-1.25-.05-2.49,0-3.73s-.32-1.61-1.47-1.53a14.75,14.75,0,0,1-2.1-.08.55.55,0,0,1-.55-.5c-.05-.43.27-.6.6-.6q4.21,0,8.43,0a.52.52,0,0,1,.57.46c0,.39-.22.59-.58.64a7.77,7.77,0,0,1-1,.07c-2.95,0-2.5-.09-2.53,2.71,0,2.27,0,4.54,0,6.82,0,.47,0,1.1-.62,1.13s-.74-.65-.75-1.17c0-1.41,0-2.82,0-4.22Z" transform="translate(-325.95 -240.59)"/><path class="cls-9" d="M424.6,247c0,1.56,0,3.12,0,4.69,0,.51-.1,1-.77,1s-.66-.49-.67-.94c0-3.3,0-6.59,0-9.88,0-.47.08-1.06.77-1s.67.62.67,1.11c0,1.67,0,3.34,0,5Z" transform="translate(-325.95 -240.59)"/></svg>