<svg id="Layer_1" data-name="Layer 1" xmlns="http://www.w3.org/2000/svg" viewBox="0 0 411.42 154.12"><defs><style>.cls-1{fill:#fefdf4;}</style></defs><path class="cls-1" d="M435.6,482.92c-6.59-5.36-9-12.34-8.78-20.71.75-31.5-2.42-63.2,5-94.35.87-3.68-1-4.52-4.15-3.54a32.61,32.61,0,0,0-9.52,5.35c-9.54,7.06-19.78,12.15-32,12.29-1.22,0-2.42.3-2.88,1.55-.55,1.52.55,2.5,1.52,3.41A19.66,19.66,0,0,1,391.41,400c-15.82-4-30.12-1.81-43.36,6.91-18.59,12.24-25.64,36.54-15.4,55.66,9.16,17.13,24.17,25.76,43.43,26.23,19,.45,37.94.13,56.91.09,1.71,0,3.95.8,4.85-1.45S437,484.07,435.6,482.92ZM385,475c-1.58,3.3-3.29,6.72-7.7,6.89-4.73.17-6.61-3.45-8.23-6.86-6.64-14-7-28.85-5.49-43.86a52.2,52.2,0,0,1,5.78-19.93c1.71-3.16,3.64-6.15,7.69-6.21,4.38-.06,6.24,3.28,7.9,6.6,5,9.9,6.2,20.54,6.12,31.43C391.22,454.16,389.83,464.94,385,475Z" transform="translate(-92.22 -334.95)"/><path class="cls-1" d="M160.84,439.33c2.59-9.44,4.11-18.05,5.63-26.68A145.86,145.86,0,0,0,169,384.92c-.07-4.33-.66-8.55-2.9-12.46-2-3.53-1-5.3,3.11-5.37q11.73-.19,23.47,0c1.78,0,4.43-1.22,5.23,1.32s-1.94,3.66-3.64,4.71c-4.93,3.05-7.93,7.47-9.81,12.77-1.51,4.22-3,8.45-4.31,12.72-5.08,16.49-10,33-15.14,49.49-2.72,8.71-4.5,9.84-13.53,9.84-3.66,0-7.33,0-11,0-8.29-.08-11-2.24-13.63-10.34-5.31-16.42-9.59-33.18-15.71-49.34-3.71-9.81-7.36-19.69-16.92-25.71-1.21-.76-2.49-1.95-1.9-3.73s2.22-1.77,3.73-1.77H147c3.49,0,5.72,2.11,3.66,5-5.93,8.19-4.75,17-3.3,25.89C149.7,411.92,154.49,425.18,160.84,439.33Z" transform="translate(-92.22 -334.95)"/><path class="cls-1" d="M298.24,387.93c3.78-4.35,6.83-8.3,10.33-11.8,10.26-10.24,20.95-11.69,33.56-4.84,8.81,4.78,11.28,17.16,5,24.92-5.59,6.88-16.42,10.46-24.22,8-5.14-1.6-7.16-4.87-6.33-10.24.2-1.31.37-2.64.69-3.92.47-1.91,1.7-4.08-.38-5.49s-4.38-.61-6.11.7c-8.09,6.1-15.37,12.57-14.89,24.21.39,9.29-.14,18.61,2,27.79,1.24,5.42,2.84,10.61,6.93,14.66a3.6,3.6,0,0,1,1.18,4c-.64,1.74-2.25,1.91-3.73,1.91q-23,.08-46,.05c-1.58,0-3-.44-3.66-2.06s.47-2.63,1.52-3.37c8.71-6.17,9.91-15.2,9.73-24.83-.09-4.83-.11-9.66,0-14.49.17-8.89-1.79-16.82-9.41-22.44-1.19-.88-2.5-1.9-1.78-3.71s2.23-1.92,3.75-1.9c12.56.15,22.57-5.93,32.12-13.12a27.42,27.42,0,0,1,6.84-4c4.23-1.58,5.13-.91,4.59,3.52-.33,2.63-.71,5.26-1.15,7.87S297.69,384.55,298.24,387.93Z" transform="translate(-92.22 -334.95)"/><path class="cls-1" d="M502.89,441.55c-1.6-1.38-2.74-.21-3.82.89-4.09,4.16-9.22,5.68-14.89,6-7.6.42-14.88-4.93-15.89-12.2,7.6,2.57,15.14,2.92,22.27-.75,6.32-3.26,11-8,11.5-15.68.47-7.95-4.26-12.64-10.34-16.3A33.1,33.1,0,0,0,472.58,399c-17.12.85-31.29,14.29-31.63,30.1-.29,13.64,9.66,26.42,24.05,29.9,17.08,4.13,29.35-2.45,37.68-13.91C503.44,444.07,504.29,442.76,502.89,441.55Zm-32.11-35.38c3.23-3.37,6.45-3.07,8.84,1a20.56,20.56,0,0,1,2.44,11.92,19.19,19.19,0,0,1-1.89,10.17c-2.66,5.41-7.26,5.88-10.84,1.14C465.07,424.75,465.88,411.29,470.78,406.17Z" transform="translate(-92.22 -334.95)"/><path class="cls-1" d="M222.92,432.55c4.5-5.93,4.25-12.77,3.52-19.6-.34-3.23-1.66-6.67-5.39-6.85-4-.19-5.6,3.26-6.21,6.66a31.07,31.07,0,0,0,1,16.22,10.85,10.85,0,0,0,.2,1.23c.45,2.07,1.2,4.19-1,5.94-2.3,3.15.91,4.64,2.15,6.59,1.34,2.13,3.68,3.3,5.84,4.56,4.56,1.95,9.39,2,14.12,1.35,3.18-.45,5.28-.52,5,3.48-10.49,9.21-22.63,10.4-35,5.53s-20-14.3-20-28.24c0-16.06,14.33-29.64,31.69-30.38A35.11,35.11,0,0,1,240,405c11.8,7.6,11.09,22.47-2.51,30.19a22.57,22.57,0,0,1-14.43,2.73c-1.43-1.68-1-3.39-.23-5.11C222.85,432.7,222.89,432.63,222.92,432.55Z" transform="translate(-92.22 -334.95)"/><path class="cls-1" d="M251.66,375.23a51.75,51.75,0,0,1-14.57-2c-2.42-.66-3.46-1.35-2.55-4,3.83-11.2,9-21.51,19.26-28.27,10.76-7.1,22.62-6.88,34.62-4.45,8.49,1.73,8.52,1.93,5.19,9.92-4.45,10.67-10.67,19.85-21.38,25.3C266.09,374.83,259.54,375.32,251.66,375.23Z" transform="translate(-92.22 -334.95)"/><path class="cls-1" d="M460.05,487.09c-11.85.9-19.69-8-23.54-17-.72-1.69-.55-2.68,1.37-3.41,15.71-6,27.76-1.39,35.51,14.74,1,2-.06,3-1.92,3.7A30,30,0,0,1,460.05,487.09Z" transform="translate(-92.22 -334.95)"/><path class="cls-1" d="M242.14,452.13c-1-2.55-2.3-3.84-5.21-2.17-3.94,2.27-7.6-2.83-11.76-.67-1.32.68-1.94-.76-2.16-2,8.19,1.92,15.79,1.26,22.2-4.9,1-1,2.18-2.37,3.8-1s.48,2.79-.35,3.95A24.6,24.6,0,0,1,242.14,452.13Z" transform="translate(-92.22 -334.95)"/><path class="cls-1" d="M223.05,437.89a11.87,11.87,0,0,1-8-1.74c1-2,.41-4,0-6.06a6.26,6.26,0,0,1,1.06.12c2.37.49,4.33,2.31,6.75,2.57a5.24,5.24,0,0,0,1.12,0A10.4,10.4,0,0,0,223.05,437.89Z" transform="translate(-92.22 -334.95)"/></svg>